<?xml version="1.0" encoding="UTF-8"?>
<svg width="423.6" height="211.23600377210883" viewBox="0 0 350 174.533997450987" class="looka-1j8o68f">
   <defs id="SvgjsDefs2074" />
   <g id="SvgjsG2075" featurekey="e7LhAk-0" transform="matrix(5.011995962014972,0,0,5.011995962014972,102.2434634024831,-25.05997981007486)" fill="#f84c07">
      <g xmlns="http://www.w3.org/2000/svg" transform="translate(-570 -140)">
         <g xmlns:xlink="http://www.w3.org/1999/xlink">
            <polygon points="584.017,159 584.017,149 576.017,145 573.017,154   " />
            <polygon points="593.017,145 585.017,149 585.017,159 596.017,154   " />
            <polygon points="591.017,160 589.75,159.045 591.509,158.246 595.017,160 595.017,158 593.792,157.208 598.483,155.075     595.458,146 594.404,146 597.25,154.537 585.017,160.099 584.017,160.099 571.783,154.537 574.629,146 573.575,146     570.55,155.075 575.241,157.208 574.017,158 574.017,160 577.524,158.246 579.283,159.045 578.017,160 578.017,161 573.017,164     573.017,166 582.746,160.62 584.017,161.197 585.017,161.197 586.287,160.62 596.017,166 596.017,164 591.017,161   " />
         </g>
      </g>
   </g>
   <g id="SvgjsG2076" featurekey="Qg0WB5-0" transform="matrix(3.0203657684856773,0,0,3.0203657684856773,-2.1746641598343603,108.08595054430211)" fill="#fd5901">
      <path d="M8.94 15 l0.8 1.04 c0.42 -0.64 0.58 -1.4 0.58 -2.16 c0 -2.16 -1.2 -3.44 -3.3 -3.44 c-2.2 0 -3.3 1.4 -3.3 3.44 c0 2.12 1.22 3.44 3.3 3.44 l-1.74 -2.32 l3.66 0 z M11.52 18.42 l2.72 3.58 l-3.74 0 l-1.6 -2.14 c-0.56 0.16 -1.18 0.24 -1.88 0.24 c-3.76 0 -6.3 -2.56 -6.3 -6.22 c0 -3.78 2.66 -6.22 6.3 -6.22 c3.78 0 6.3 2.54 6.3 6.22 c0 1.76 -0.52 3.3 -1.8 4.54 z M22.08 10 l3 0 l0 5 c0 3.06 -2.12 5.1 -5.1 5.1 c-3.06 0 -5.1 -2.14 -5.1 -5.1 l0 -5 l3 0 l0 5 c0 1.34 0.68 2.32 2.1 2.32 c1.46 0 2.1 -0.96 2.1 -2.32 l0 -5 z M30.080000000000002 15 l0 5 l-3 0 l0 -4.98 c0 -3.32 2.44 -5.12 5.52 -5.12 c0.1 0 0.24 0 0.38 0.02 s0.3 0.06 0.44 0.08 l0 2.9 c-0.1 -0.02 -0.22 -0.04 -0.36 -0.06 s-0.26 -0.04 -0.36 -0.04 c-0.5 0 -0.9 0.06 -1.24 0.16 c-0.56 0.2 -1.06 0.58 -1.24 1.18 c-0.1 0.26 -0.14 0.56 -0.14 0.86 z M41.739999999999995 15 c-0.08 -1.46 -0.74 -2.32 -2.26 -2.32 c-0.42 0 -0.78 0.06 -1.08 0.18 c-0.92 0.42 -1.26 1.2 -1.26 2.16 c0 0.32 0.04 0.62 0.14 0.88 c0.3 1.04 1.2 1.42 2.2 1.42 c1.52 0 2.26 -0.82 2.26 -2.32 z M45.54 20 l-3 0 c-0.2 -0.5 -0.38 -1 -0.5 -1.52 c-0.68 1.12 -1.72 1.62 -3 1.62 c-2.86 0 -4.9 -2.4 -4.9 -5.14 c0 -3.16 2.36 -5.06 5.34 -5.06 c3.18 0 5.18 2.04 5.26 5.1 c0.02 0.26 0.02 0.56 0.02 0.92 c0 1.4 0.22 2.8 0.78 4.08 z M56.94 15 l0 5 l-3 0 l0 -5 c0 -1.38 -0.64 -2.32 -2.1 -2.32 c-1.44 0 -2.1 0.96 -2.1 2.32 l0 5 l-3 0 l0 -5 c0 -3.08 2.12 -5.1 5.1 -5.1 c3.1 0 5.1 2.12 5.1 5.1 z M66.32 13.26 l0 6.74 l-3 0 l0 -12.24 l3 0 l3.82 6.76 l3.82 -6.76 l3 0 l0 12.24 l-3 0 l0 -6.74 l-2.32 3.98 l-3 0 z M79.02 10 l3 0 l0 10 l-3 0 l0 -10 z M80.52 9.06 c-1.02 0 -1.74 -0.72 -1.74 -1.74 c0 -1.04 0.72 -1.72 1.74 -1.72 c1.04 0 1.72 0.68 1.72 1.72 c0 1.06 -0.66 1.74 -1.72 1.74 z M94.32 15 l0 5 l-3 0 l0 -5 c0 -1.38 -0.64 -2.32 -2.1 -2.32 c-1.44 0 -2.1 0.96 -2.1 2.32 l0 5 l-3 0 l0 -5 c0 -3.08 2.12 -5.1 5.1 -5.1 c3.1 0 5.1 2.12 5.1 5.1 z M103.17999999999999 15 c0 -1.5 -0.74 -2.32 -2.26 -2.32 c-0.42 0 -0.78 0.06 -1.08 0.18 c-0.56 0.26 -0.94 0.64 -1.12 1.24 c-0.1 0.28 -0.14 0.58 -0.14 0.9 s0.04 0.62 0.14 0.9 c0.16 0.58 0.58 1 1.12 1.22 c0.3 0.14 0.66 0.2 1.08 0.2 c1.52 0 2.26 -0.82 2.26 -2.32 z M103.17999999999999 11 l0 -5 l3 0 l0 9 c0 3.18 -2.26 5.1 -5.28 5.1 c-3.08 0 -5.32 -2 -5.32 -5.06 c0 -2.82 2.08 -5.14 4.92 -5.14 c1.06 0 1.98 0.3 2.68 1.1 z M107.72 19.68 l0 -2.8 c1.32 0.4 2.98 0.48 4.34 0.48 c0.54 0 0.96 -0.02 1.26 -0.08 c0.28 -0.04 0.42 -0.14 0.42 -0.28 c0 -0.06 -0.02 -0.1 -0.06 -0.16 c-0.2 -0.2 -0.64 -0.3 -0.9 -0.36 s-0.6 -0.14 -1.02 -0.22 c-0.34 -0.06 -0.74 -0.14 -1.2 -0.24 c-1.56 -0.34 -2.76 -1.22 -2.76 -2.9 c0 -2.48 2.42 -3.22 4.46 -3.22 c1.28 0 2.56 0.18 3.82 0.44 l0 2.82 c-1.26 -0.38 -2.68 -0.48 -4 -0.48 c-0.52 0 -0.88 0.02 -1.1 0.08 s-0.34 0.16 -0.34 0.28 c0 0.18 0.18 0.3 0.52 0.36 c0.34 0.08 0.82 0.18 1.4 0.28 c0.52 0.1 1.02 0.2 1.5 0.32 c1.48 0.38 2.54 1.18 2.54 2.78 c0 2.68 -2.7 3.34 -4.86 3.34 c-1.36 0 -2.7 -0.18 -4.02 -0.44 z" />
   </g>
</svg>